<svg id="Layer_1" data-name="Layer 1" xmlns="http://www.w3.org/2000/svg" viewBox="0 0 643.12 643.12"><title>bass_harmonica_icon</title><path d="M180.23,557.45A39.71,39.71,0,0,1,152,545.78L83.72,477.55a40,40,0,0,1,0-56.56l357-357a40.1,40.1,0,0,1,56.56,0l68.23,68.23a40.1,40.1,0,0,1,0,56.56l-357,357A39.73,39.73,0,0,1,180.23,557.45Z" transform="translate(-71.55 -51.82)"/><path d="M469,52.82a39.22,39.22,0,0,1,27.93,11.52l68.23,68.23a39.62,39.62,0,0,1,0,55.86l-357,357a39.62,39.62,0,0,1-55.86,0L84.07,477.2a39.54,39.54,0,0,1,0-55.86l357-357A39.22,39.22,0,0,1,469,52.82m0-1a40.38,40.38,0,0,0-28.64,11.82l-357,357a40.61,40.61,0,0,0,0,57.27l68.23,68.23a40.62,40.62,0,0,0,57.27,0l357-357a40.63,40.63,0,0,0,0-57.28L497.64,63.64A40.38,40.38,0,0,0,469,51.82Z" transform="translate(-71.55 -51.82)"/><path d="M317.23,694.45A39.71,39.71,0,0,1,289,682.78l-68.23-68.23a40,40,0,0,1,0-56.56l357-357a40.1,40.1,0,0,1,56.56,0l68.23,68.23a40.1,40.1,0,0,1,0,56.56l-357,357A39.73,39.73,0,0,1,317.23,694.45Z" transform="translate(-71.55 -51.82)"/><path d="M606,189.82a39.22,39.22,0,0,1,27.93,11.52l68.23,68.23a39.62,39.62,0,0,1,0,55.86l-357,357a39.62,39.62,0,0,1-55.86,0L221.07,614.2a39.54,39.54,0,0,1,0-55.86l357-357A39.22,39.22,0,0,1,606,189.82m0-1a40.38,40.38,0,0,0-28.64,11.82l-357,357a40.61,40.61,0,0,0,0,57.27l68.23,68.23a40.62,40.62,0,0,0,57.27,0l357-357a40.63,40.63,0,0,0,0-57.28l-68.22-68.22A40.38,40.38,0,0,0,606,188.82Z" transform="translate(-71.55 -51.82)"/><path d="M237.32,671.81a8.93,8.93,0,0,1-6.36-2.62L97.31,535.54A9,9,0,0,1,110,522.81L243.69,656.46a9,9,0,0,1-6.37,15.35Z" transform="translate(-71.55 -51.82)"/><path d="M103.68,520.69a8.43,8.43,0,0,1,6,2.48L243.33,656.81a8.5,8.5,0,0,1-12,12L97.67,535.19a8.49,8.49,0,0,1,6-14.5m0-1A9.49,9.49,0,0,0,97,535.9L230.6,669.54a9.54,9.54,0,0,0,13.44,0h0a9.54,9.54,0,0,0,0-13.44L110.4,522.46a9.48,9.48,0,0,0-6.72-2.77Z" transform="translate(-71.55 -51.82)"/><path d="M683.32,225.81a8.93,8.93,0,0,1-6.36-2.62L543.31,89.54A9,9,0,0,1,556,76.81L689.69,210.46a9,9,0,0,1-6.37,15.35Z" transform="translate(-71.55 -51.82)"/><path d="M549.68,74.69a8.43,8.43,0,0,1,6,2.48L689.33,210.81a8.5,8.5,0,0,1-12,12L543.67,89.19a8.49,8.49,0,0,1,6-14.5m0-1A9.49,9.49,0,0,0,543,89.9L676.6,223.54a9.54,9.54,0,0,0,13.44,0h0a9.54,9.54,0,0,0,0-13.44L556.4,76.46a9.48,9.48,0,0,0-6.72-2.77Z" transform="translate(-71.55 -51.82)"/><path d="M182.32,656.81a8.93,8.93,0,0,1-6.36-2.62L113.1,591.33a9,9,0,0,1,12.73-12.73l62.86,62.86a9,9,0,0,1-6.37,15.35Z" transform="translate(-71.55 -51.82)"/><path d="M119.47,576.48a8.43,8.43,0,0,1,6,2.48l62.85,62.85a8.5,8.5,0,0,1-12,12L113.46,591a8.49,8.49,0,0,1,6-14.5m0-1a9.46,9.46,0,0,0-6.72,2.77h0a9.53,9.53,0,0,0,0,13.43l62.85,62.86a9.54,9.54,0,0,0,13.44,0h0a9.54,9.54,0,0,0,0-13.44l-62.85-62.85a9.48,9.48,0,0,0-6.72-2.77Z" transform="translate(-71.55 -51.82)"/><path d="M668.32,170.81a8.93,8.93,0,0,1-6.36-2.62L599.1,105.33A9,9,0,0,1,611.83,92.6l62.86,62.86a9,9,0,0,1-6.37,15.35Z" transform="translate(-71.55 -51.82)"/><path d="M605.47,90.48a8.43,8.43,0,0,1,6,2.48l62.85,62.85a8.5,8.5,0,0,1-12,12L599.46,105a8.49,8.49,0,0,1,6-14.5m0-1a9.46,9.46,0,0,0-6.72,2.77h0a9.53,9.53,0,0,0,0,13.43l62.85,62.86a9.54,9.54,0,0,0,13.44,0h0a9.54,9.54,0,0,0,0-13.44L612.19,92.25a9.48,9.48,0,0,0-6.72-2.77Z" transform="translate(-71.55 -51.82)"/></svg>