<svg id="Layer_1" data-name="Layer 1" xmlns="http://www.w3.org/2000/svg" viewBox="0 0 720.33 717.33"><title>chord_harmonica_icon</title><path d="M100.23,646.11a19,19,0,0,1-13.53-5.58L55.47,609.3a19.19,19.19,0,0,1,0-27.06L583,54.74a19.19,19.19,0,0,1,27.06,0L641.26,86a19.16,19.16,0,0,1,0,27.06l-527.5,527.5A19,19,0,0,1,100.23,646.11Z" transform="translate(-22.48 -23.98)"/><path d="M596.5,49.66a18.54,18.54,0,0,1,13.18,5.43l31.23,31.23a18.67,18.67,0,0,1,0,26.36l-527.5,527.5a18.71,18.71,0,0,1-26.36,0L55.82,609a18.71,18.71,0,0,1,0-26.36l527.5-527.5a18.54,18.54,0,0,1,13.18-5.43m0-1a19.59,19.59,0,0,0-13.89,5.73L55.11,581.89a19.71,19.71,0,0,0,0,27.77l31.23,31.23a19.71,19.71,0,0,0,27.77,0l527.5-527.5a19.7,19.7,0,0,0,0-27.78L610.39,54.39a19.59,19.59,0,0,0-13.89-5.73Z" transform="translate(-22.48 -23.98)"/><path d="M167.23,714.11a19,19,0,0,1-13.53-5.58L122.47,677.3a19.19,19.19,0,0,1,0-27.06L650,122.74a19.19,19.19,0,0,1,27.06,0L708.26,154a19.16,19.16,0,0,1,0,27.06l-527.5,527.5A19,19,0,0,1,167.23,714.11Z" transform="translate(-22.48 -23.98)"/><path d="M663.5,117.66a18.54,18.54,0,0,1,13.18,5.43l31.23,31.23a18.67,18.67,0,0,1,0,26.36l-527.5,527.5a18.71,18.71,0,0,1-26.36,0L122.82,677a18.71,18.71,0,0,1,0-26.36l527.5-527.5a18.54,18.54,0,0,1,13.18-5.43m0-1a19.59,19.59,0,0,0-13.89,5.73l-527.5,527.5a19.71,19.71,0,0,0,0,27.77l31.23,31.23a19.71,19.71,0,0,0,27.77,0l527.5-527.5a19.7,19.7,0,0,0,0-27.78l-31.22-31.22a19.59,19.59,0,0,0-13.89-5.73Z" transform="translate(-22.48 -23.98)"/><path d="M152.32,740.81a8.93,8.93,0,0,1-6.36-2.62L25.6,617.83A9,9,0,0,1,38.33,605.1L158.69,725.46a9,9,0,0,1-6.37,15.35Z" transform="translate(-22.48 -23.98)"/><path d="M32,603a8.43,8.43,0,0,1,6,2.48L158.33,725.81a8.5,8.5,0,0,1-12,12L26,617.48A8.49,8.49,0,0,1,32,603m0-1a9.46,9.46,0,0,0-6.72,2.77h0a9.53,9.53,0,0,0,0,13.43L145.6,738.54a9.54,9.54,0,0,0,13.44,0h0a9.54,9.54,0,0,0,0-13.44L38.69,604.75A9.48,9.48,0,0,0,32,602Z" transform="translate(-22.48 -23.98)"/><path d="M733.32,162.81a8.93,8.93,0,0,1-6.36-2.62L606.6,39.83A9,9,0,0,1,619.33,27.1L739.69,147.46a9,9,0,0,1-6.37,15.35Z" transform="translate(-22.48 -23.98)"/><path d="M613,25a8.43,8.43,0,0,1,6,2.48L739.33,147.81a8.5,8.5,0,0,1-12,12L607,39.48A8.49,8.49,0,0,1,613,25m0-1a9.46,9.46,0,0,0-6.72,2.77h0a9.53,9.53,0,0,0,0,13.43L726.6,160.54a9.54,9.54,0,0,0,13.44,0h0a9.54,9.54,0,0,0,0-13.44L619.69,26.75A9.48,9.48,0,0,0,613,24Z" transform="translate(-22.48 -23.98)"/><path d="M105.32,733.81A8.93,8.93,0,0,1,99,731.19L36.1,668.33A9,9,0,0,1,48.83,655.6l62.86,62.86a9,9,0,0,1-6.37,15.35Z" transform="translate(-22.48 -23.98)"/><path d="M42.47,653.48a8.43,8.43,0,0,1,6,2.48l62.85,62.85a8.5,8.5,0,0,1-12,12L36.46,668a8.49,8.49,0,0,1,6-14.5m0-1a9.46,9.46,0,0,0-6.72,2.77h0a9.53,9.53,0,0,0,0,13.43L98.6,731.54a9.54,9.54,0,0,0,13.44,0h0a9.54,9.54,0,0,0,0-13.44L49.19,655.25a9.48,9.48,0,0,0-6.72-2.77Z" transform="translate(-22.48 -23.98)"/><path d="M723.32,112.81a8.93,8.93,0,0,1-6.36-2.62L654.1,47.33A9,9,0,0,1,666.83,34.6l62.86,62.86a9,9,0,0,1-6.37,15.35Z" transform="translate(-22.48 -23.98)"/><path d="M660.47,32.48a8.43,8.43,0,0,1,6,2.48l62.85,62.85a8.5,8.5,0,0,1-12,12L654.46,47a8.49,8.49,0,0,1,6-14.5m0-1a9.46,9.46,0,0,0-6.72,2.77h0a9.53,9.53,0,0,0,0,13.43l62.85,62.86a9.54,9.54,0,0,0,13.44,0h0a9.54,9.54,0,0,0,0-13.44L667.19,34.25a9.48,9.48,0,0,0-6.72-2.77Z" transform="translate(-22.48 -23.98)"/></svg>