<?xml version="1.0" encoding="iso-8859-1"?>
<!-- Generator: Adobe Illustrator 16.0.0, SVG Export Plug-In . SVG Version: 6.00 Build 0)  -->
<!DOCTYPE svg PUBLIC "-//W3C//DTD SVG 1.1//EN" "http://www.w3.org/Graphics/SVG/1.1/DTD/svg11.dtd">
<svg version="1.1" id="Capa_1" xmlns="http://www.w3.org/2000/svg" xmlns:xlink="http://www.w3.org/1999/xlink" x="0px" y="0px"
	 width="338.059px" height="338.06px" viewBox="0 0 338.059 338.06" style="enable-background:new 0 0 338.059 338.06;"
	 xml:space="preserve">
<g>
	<g id="Layer_8_39_">
		<path d="M322.184,0H15.871c-4.646,0-8.405,3.765-8.405,8.405v321.25c0,4.641,3.759,8.404,8.405,8.404h237.856
			c2.123,0,4.169-0.798,5.724-2.254l68.454-63.771c1.719-1.587,2.689-3.819,2.689-6.149V8.405C330.588,3.765,326.83,0,322.184,0z
			 M24.275,16.81h289.509v232.943h-68.179c-4.646,0-8.404,3.765-8.404,8.404v63.093H24.275V16.81z M254.011,317.901v-51.339h55.114
			L254.011,317.901z M69.988,75.757c0.258,0.621,0.483,1.171,0.648,1.562c1.492,3.491,3.423,5.976,6.803,7.639
			c1.474,0.723,3.832,0.919,5.296,0.102c4.398-2.495,5.188-4.741,10.112-1.849c3.828,2.24,8.87,0.229,12.469,3.25
			c2.601,2.192,3.282,3.031,6.81,3.434c3.584,0.404,3.545-5.199,0-5.604c-3.139-0.358-5.387-4.498-8.875-5.02
			c-3.175-0.481-6.133,0.309-9.002-2.213c-1.141-1.007-1.489-2.022-3.119-2.112c-3.705-0.175-12.137,5.491-14.562,1.77
			c-1.917-2.952-2.647-6.875-4.765-9.748c1.127-7.847,1.144-15.981,0.753-23.653c-0.186-3.603-5.79-3.614-5.604,0
			c0.334,6.512,0.413,13.377-0.304,20.072c-11.274-2.919-14.977,26.487-15.458,33.16c-0.191,2.673,3.081,3.39,4.785,1.983
			C63.291,92.444,67.574,84.466,69.988,75.757z M62.76,71.571c1.001-1.989,2.018-2.471,2.979-2.123
			c-1.333,6.914-3.78,13.469-7.999,19.051C58.659,82.627,60.164,76.751,62.76,71.571z M145.527,76.104
			c-0.377,1.973-0.123,4.203,0.67,6.129c1.036,2.517,4.457,2.791,5.402,0c0.483-1.434,0.67-2.659,0.718-3.841
			c0.587-0.121,1.367-0.046,2.246,0.15c1.957,5.351,3.698,10.769,6.628,15.56c1.883,3.075,6.73,0.262,4.834-2.823
			c-1.557-2.55-2.829-6.096-4.106-9.957c4.213,1.513,8.826,3.154,13.301,3.204c6.482,0.09,9.078-1.652,12.099-5.91
			c2.559,2.317,5.437,5.097,8.797,5.373c8.428,0.688,17.313-6.645,25.265-2.539c4.722,2.433,6.583,6.175,12.187,5.647
			c1.434-0.128,2.891-1.059,4.1-1.62c8.66-3.983,14.194-8.262,24.307-5.491c3.489,0.952,4.973-4.455,1.491-5.407
			c-5.969-1.63-11.118-1.368-17.109,0.102c-9.202,2.273-12.34,9.423-22.146,1.937c-3.6-2.744-7.484-2.526-11.621-1.894
			c-3.273,0.504-6.766,2.399-9.917,3.401c-6.479,2.101-10.364-2.845-14.539-6.063c-1.253-0.963-3.101-0.15-3.834,1.009
			c-7.256,11.382-16.44,3.996-25.16,0.033c-2.771-7.726-6.336-14.949-12.847-16.886c-4.499-1.346-8.696,1.814-9.908,6.315
			C134.416,69.855,142.635,72.031,145.527,76.104z M148.906,66.529c0.964,1.456,1.776,2.974,2.531,4.534
			c-0.777,0.021-1.471,0.128-2.089,0.342c-1.424-1.4-3.602-2.459-5.2-3.415C138.914,64.876,144.708,60.203,148.906,66.529z
			 M283.001,136.144c-10.473-3.444-26.697-0.37-37.699-0.37c-9.698,0-21.193,1.653-31.395,0.449
			c-2.49-0.744-5.117-1.272-7.919-1.502c-3.261-0.263-3.666,4.607-0.753,5.503c2.34,0.722,4.792,1.148,7.309,1.468
			c8.734,2.802,15.006,9.207,22.326,14.928c-1.456,0.23-2.993,0.632-4.649,0.996c-6.49,1.401-14.656,0.394-20.916-1.262
			c-2.331-0.621-5.886-1.364-8.279-0.525c-3.628,1.284-6.594,2.953-9.898,5.004c-12.065,7.497-13.537-6.479-15.724-11.863
			c-1.322-3.262-4.271-5.45-7.847-5.45c-9.922,0-20.12,11.25-25.51,19.784c-5.642,1.412-28.969,4.605-32.021,2.262
			c-0.535-0.413-1.213-0.435-1.855-0.306c3.133-5.384,6.791-10.461,6.39-17.236c-0.082-1.423-1.214-2.941-2.801-2.802
			c-8.587,0.78-17.02,2.454-25.466,4.062c0.383-4.924,0.572-9.885,0.604-14.916c0.025-3.614-5.579-3.614-5.603,0
			c-0.04,5.384-0.236,10.693-0.687,15.992c-6.266,1.138-12.553,2.123-18.926,2.571c-3.567,0.252-3.635,5.743,0,5.604
			c6.955-0.274,13.45,2.01,17.194,8.415c1.165,1.993,4.625,1.773,5.122-0.668c0.761-3.775,1.289-7.529,1.718-11.283
			c7.649-1.458,15.296-2.955,23.052-3.833c-1.245,8.785-9.307,15.741-10.317,24.874c-0.262,2.424,3.256,3.731,4.786,1.985
			c1.148-1.323,4.349-7.704,6.543-4.902c1.291,1.643,4.635,1.708,6.581,1.381c4.812-0.822,8.304-4.248,13.26-4.072
			c4.186,0.142,7.735-0.252,11.561-1.139c1.217,1.028,3.173,1.192,4.17-0.602c2.634-4.75,20.81-27.694,25.675-15.728
			c3.098,7.628,2.868,12.665,10.994,15.946c2.446,0.985,5.845-0.449,8.071-1.213c7.491-2.596,12.333-7.361,21.324-4.992
			c6.304,1.663,25.094-3.054,28.123,3.271c3.801,7.957,16.539,5.078,11.221-3.399c-3.83-6.122-13.139-11.096-18.468-15.618
			c-2.058-1.754-4.121-3.352-6.232-4.786c6.565-0.218,13.144-0.812,19.228-0.812c9.227,0,18.452,0,27.678,0
			c11.169,0,8.7,4.573,5.533,11.896c-1.418,3.272,3.408,6.128,4.833,2.823C286.406,149.002,293.68,139.656,283.001,136.144z
			 M79.581,158.984c-0.962-0.875-2.019-1.631-3.109-2.31c1.176-0.196,2.352-0.391,3.528-0.61
			C79.877,157.033,79.726,158.021,79.581,158.984z M225.24,241.534c-13.667-0.844-19.271-9.533-31.026,1.009
			c-4.575,4.113-6.632,7.429-13.154,9.946c0.547-0.208-10.937,1.162-12.402,1.378c-1.698,0.241-3.736,1.227-4.936,2.487
			c-6.875,7.308-15.669,8.436-24.498,4.32c-7.586-3.535-17.428-6.533-27.219-7.212c1.237-8.371,2.038-20.016-3.341-20.936
			c-5.603-0.952-9.756,2.199-14.346,5.198c-9.458,6.189-6.768-7.08-10.686-10.431c-8.915-7.639-20.088,7.793-26.856,12.171
			c-3.019,1.958-0.21,6.817,2.832,4.837c3.78-2.451,19.924-19.819,21.088-8.066c0.353,3.547,0.577,9.281,5.352,9.708
			c5.8,0.515,20.34-10.692,20.632-3.271c0.14,3.535-0.17,7.126-0.502,10.67c-9.259,0.317-18.067,3.119-24.398,10.024
			c-1.272,1.379-0.988,4.356,1.237,4.684c8.239,1.194,25.262,5.516,27.663-6.981c0.096-0.493,0.235-1.215,0.387-2.025
			c4.903-0.032,9.688,0.405,13.66,1.095c5.309,0.908,9.595,4.41,14.376,6.633c4.632,2.177,10.618,2.078,15.586,2.177
			c2.668,0.045,6.908-1.389,8.647-3.587c6.41-8.058,15.998-4.391,23.487-9.141c4.345-2.725,7.756-6.062,11.36-9.708
			c8.175-8.273,18.313,0.088,27.063,0.625C228.853,247.356,228.83,241.753,225.24,241.534z M90.395,263.718
			c4.19-2.484,9.329-3.829,14.675-4.366C102.648,265.063,96.121,264.692,90.395,263.718z"/>
	</g>
</g>
<g>
</g>
<g>
</g>
<g>
</g>
<g>
</g>
<g>
</g>
<g>
</g>
<g>
</g>
<g>
</g>
<g>
</g>
<g>
</g>
<g>
</g>
<g>
</g>
<g>
</g>
<g>
</g>
<g>
</g>
</svg>
