<?xml version="1.0" encoding="iso-8859-1"?>
<!-- Generator: Adobe Illustrator 16.0.0, SVG Export Plug-In . SVG Version: 6.00 Build 0)  -->
<!DOCTYPE svg PUBLIC "-//W3C//DTD SVG 1.1//EN" "http://www.w3.org/Graphics/SVG/1.1/DTD/svg11.dtd">
<svg version="1.1" id="Capa_1" xmlns="http://www.w3.org/2000/svg" xmlns:xlink="http://www.w3.org/1999/xlink" x="0px" y="0px"
	 width="47px" height="47px" viewBox="0 0 47 47" style="enable-background:new 0 0 47 47;" xml:space="preserve">
<g>
	<path d="M38.564,0H8.436C3.784,0,0,3.784,0,8.436v30.128C0,43.216,3.784,47,8.436,47h30.128C43.216,47,47,43.216,47,38.564V8.436
		C47,3.784,43.216,0,38.564,0z M11.147,42.18H8.436c-1.994,0-3.616-1.621-3.616-3.615V15.667h3.917V30.73
		c0,1,0.809,1.809,1.808,1.809h0.603L11.147,42.18L11.147,42.18z M13.558,32.539h0.603c0.999,0,1.808-0.809,1.808-1.809V15.667
		h3.917V30.73c0,1,0.809,1.809,1.808,1.809h0.603v9.641H13.56v-9.641H13.558z M33.441,42.18h-8.736v-9.641h0.604
		c0.998,0,1.808-0.809,1.808-1.809V15.667h3.917V30.73c0,1,0.809,1.809,1.808,1.809h0.603v9.641H33.441z M42.18,38.564
		c0,1.994-1.621,3.615-3.615,3.615h-2.711v-9.641h0.603c0.999,0,1.808-0.809,1.808-1.809V15.667h3.918v22.897H42.18z"/>
</g>
<g>
</g>
<g>
</g>
<g>
</g>
<g>
</g>
<g>
</g>
<g>
</g>
<g>
</g>
<g>
</g>
<g>
</g>
<g>
</g>
<g>
</g>
<g>
</g>
<g>
</g>
<g>
</g>
<g>
</g>
</svg>
